<svg width="16" height="16" viewBox="0 0 512 512" fill="none" xmlns="http://www.w3.org/2000/svg">
  <path d="M0 158.816C0.92764 156.827 1.73451 147.766 2.20804 144.951C3.17705 139.214 4.52525 133.547 6.24377 127.987C18.5496 87.2362 48.159 53.9622 87.2048 37.0059C117.138 24.0084 152.375 21.1186 183.803 30.1827C187.477 31.2424 190.88 32.1759 194.45 33.5907C214.564 41.3637 232.874 53.1702 248.255 68.2837C249.528 69.5122 255.325 75.7172 256.568 74.8674C258.388 73.6217 262.095 69.7042 263.922 67.9659C268.822 63.3044 274.302 58.7929 279.62 54.6199C314.387 27.4972 359.835 18.1836 402.467 29.4444C440.06 39.1197 472.27 63.3352 492.005 96.7624C499.793 110.036 506.468 126.78 509.315 141.977C509.89 145.188 510.385 148.413 510.8 151.649C511.04 153.546 511.405 157.743 512 159.327V179.682C511.585 180.967 511.353 183.668 511.22 185.062C508.58 213.195 497.298 240.555 479.038 262.267C470.133 272.855 458.482 283.785 448.342 293.917L410.168 332.085L308.775 433.477L275.092 467.16C268.885 473.37 262.1 479.927 256.103 486.285C254.308 484.857 249.834 480.175 248.112 478.452L232.697 463.03L181.994 412.325L83.2825 313.625L54.675 285.022C43.6277 273.972 32.3905 263.055 23.705 249.895C13.1906 233.994 6.31695 216.754 2.59192 198.087C1.503 192.63 1.39909 184.655 0 179.631V158.816Z" fill="black"/>
  <path d="M138.139 57.392C141.54 57.21 144.947 57.1395 148.353 57.1805C197.609 57.8322 223.935 88.1032 256.002 120.972C288.375 87.948 313.84 57.8782 363.782 57.1882C395.457 56.7507 423.54 67.5487 446.355 89.8095C467.615 110.686 479.66 139.185 479.82 168.981C480.237 194.907 471.602 220.167 455.4 240.41C450.042 247.179 442.657 254.25 436.512 260.388L411.185 285.71L346.47 350.573C316.45 380.55 285.677 410.77 256.052 441.06C233.297 418.897 210.325 395.425 187.932 372.848L124.549 309.457L83.9459 268.858C72.5066 257.42 60.4749 246.523 51.3244 233.107C22.1622 190.349 26.7796 131.585 61.9529 93.7292C81.4609 72.7335 109.288 58.635 138.139 57.392Z" fill="#E81224"/>
  <path d="M119.589 121.112C128.948 121.319 135.826 125.067 140.715 133.204C144.52 139.536 144.009 146.451 143.993 153.544L143.955 169.847C143.999 179.386 144.783 185.642 151.638 192.703C156.109 197.309 160.713 201.837 165.25 206.369L212.121 253.255L224.34 265.455C227.069 268.163 231.082 271.905 233.269 274.898C235.727 278.315 237.257 282.31 237.712 286.495C238.912 298.533 231.196 309.583 219.394 312.378C217.878 312.738 216.23 312.838 214.678 312.968C207.353 312.66 202.821 311.303 197.361 306.16C192.529 301.608 187.766 296.68 183.067 291.973L156.606 265.503L129.795 238.7C122.325 231.231 113.224 222.882 107.534 214.131C100.83 203.832 96.9161 191.967 96.1748 179.7C95.8028 173.468 95.8741 166.061 95.9051 159.737C95.9338 153.857 95.5398 144.297 96.8631 138.972C97.8056 135.196 99.6553 131.707 102.252 128.808C107.022 123.506 112.636 121.441 119.589 121.112Z" fill="#F06852"/>
</svg>
