<svg width="24" height="24" viewBox="0 0 24 24" fill="none" xmlns="http://www.w3.org/2000/svg">
<g clip-path="url(#clip0_171_1895)">
<path d="M21.333 0C22.8058 0 24 1.19423 24 2.66699V21.333C24 22.8058 22.8058 24 21.333 24H2.66699C1.19423 24 0 22.8058 0 21.333V2.66699C0 1.19423 1.19423 0 2.66699 0H21.333ZM3.67676 20.666H7.25586V9.11035H3.67676V20.666ZM16.4609 8.75781C14.0275 8.75781 12.9923 10.6382 12.9766 10.667V9.11035H9.54395V20.666H12.9766V14.6006C12.9766 12.9754 13.7244 12.008 15.1562 12.0078C16.4726 12.0078 17.1045 12.9375 17.1045 14.6006V20.666H20.666V13.3496C20.6658 10.2545 18.9116 8.75798 16.4609 8.75781ZM5.44922 3.33301C4.28023 3.33314 3.33301 4.28835 3.33301 5.46582C3.33326 6.64307 4.28039 7.59753 5.44922 7.59766C6.61816 7.59766 7.56517 6.64315 7.56543 5.46582C7.56543 4.28827 6.61832 3.33301 5.44922 3.33301Z" fill="#111010"/>
</g>
<defs>
<clipPath id="clip0_171_1895">
<rect width="24" height="24" fill="white"/>
</clipPath>
</defs>
</svg>
