<svg width="40" height="40" viewBox="0 0 140 140" fill="none" xmlns="http://www.w3.org/2000/svg">
  <path d="M68.4256 7L13 39L28 47.7461L61 28.6936L63.6597 27.158V44.1532H84.7769L81.6935 45.9334L73.7839 50.5L68.4256 53.5936L63.6597 56.3452L56.4167 60.527L53.3512 62.2968L68.4256 71L123.851 39L108.777 30.2968L83.5 30V15.7032L68.4256 7Z" fill="#2F8565"/>
  <path d="M123.851 100.957V82.9571L83.5 106.254V80.2539L101.335 69.9571L123.851 56.9571V39L68.4256 71V132.957L123.851 100.957Z" fill="#2F8565"/>
  <path d="M54.8516 123.388L66.9258 130.358V71.8652L54.8516 64.8945V123.388ZM69.9258 71.8652V130.358L122.352 100.091V85.5547L82 108.852V79.3877L122.352 56.0908V41.5977L69.9258 71.8652ZM14.5 100.091L26.5 107.019V48.6074L14.5 41.6104V100.091ZM29.5 48.6113V107.019L51.8516 94.1143V61.4307L62.1602 55.4785V29.7549L29.5 48.6113ZM85 81.1191V103.655L120.852 82.9561L101.334 71.6885L85 81.1191ZM15.9883 39.0059L28.0039 46.0117L65.1602 24.5596V42.6533H90.375L56.3506 62.2969L68.4258 69.2676L120.852 38.999L108.367 31.792L82 31.4824V16.5684L68.4248 8.73145L15.9883 39.0059ZM65.1602 53.7471L79.1787 45.6533H65.1602V53.7471ZM125.352 57.8232L104.334 69.957L125.352 82.0908V101.823L68.4258 134.689L51.8516 125.12V97.5791L28 111.35L11.5 101.823V38.1338L68.4258 5.26758L85 14.8369V28.5166L109.187 28.8018L109.527 28.998L125.352 38.1338V57.8232Z" fill="#111010"/>
</svg>
