<svg width="40" height="40" viewBox="0 0 140 140" fill="none" xmlns="http://www.w3.org/2000/svg">
<path d="M68.4256 7L13 39L28 47.7461L61 28.6936L63.6597 27.158V44.1532H84.7769L81.6935 45.9334L73.7839 50.5L68.4256 53.5936L63.6597 56.3452L56.4167 60.527L53.3512 62.2968L68.4256 71L123.851 39L108.777 30.2968L83.5 30V15.7032L68.4256 7Z" fill="#2F8565"/>
<path d="M123.851 100.957V82.9571L83.5 106.254V80.2539L101.335 69.9571L123.851 56.9571V39L68.4256 71V132.957L123.851 100.957Z" fill="#2F8565"/>
<path d="M123.851 39V56.9571L101.335 69.9571M123.851 39L68.4256 71M123.851 39L108.777 30.2968L83.5 30V15.7032L68.4256 7L13 39M123.851 82.9571V100.957L68.4256 132.957M123.851 82.9571L83.5 106.254V80.2539L101.335 69.9571M123.851 82.9571L101.335 69.9571M68.4256 132.957L53.3512 124.254V94.9808M68.4256 132.957V71M13 39V100.957L28 109.617M13 39L28 47.7461M28 109.617V47.7461M28 109.617L53.3512 94.9808M28 47.6603V47.7461M68.4256 71L53.3512 62.2968M53.3512 62.2968V94.9808M53.3512 62.2968L56.4167 60.527L63.6597 56.3452M28 47.7461L61 28.6936L63.6597 27.158V44.1532M63.6597 44.1532H84.7769L81.6935 45.9334L73.7839 50.5L68.4256 53.5936L63.6597 56.3452M63.6597 44.1532V56.3452" stroke="#111010" stroke-width="3"/>
</svg>
